<?xml version="1.0" standalone="no"?>
<!DOCTYPE svg PUBLIC "-//W3C//DTD SVG 20010904//EN"
 "http://www.w3.org/TR/2001/REC-SVG-20010904/DTD/svg10.dtd">
<svg version="1.0" xmlns="http://www.w3.org/2000/svg"
 width="426.000000pt" height="361.000000pt" viewBox="0 0 426.000000 361.000000"
 preserveAspectRatio="xMidYMid meet">

<g transform="translate(0.000000,361.000000) scale(0.100000,-0.100000)"
fill="#000000" stroke="none">
<path d="M2436 2969 c-69 -14 -183 -69 -233 -113 -94 -82 -143 -200 -143 -345
0 -101 20 -186 59 -254 l28 -49 199 2 c109 0 199 2 201 4 1 1 -25 22 -60 46
-161 114 -220 204 -221 340 0 95 23 165 74 223 73 83 213 123 342 98 83 -17
147 -53 209 -117 80 -85 116 -174 155 -381 3 -18 11 -23 34 -23 l30 0 0 158
c0 88 3 214 7 280 l6 122 -31 0 c-26 0 -31 -4 -37 -32 -4 -18 -14 -46 -22 -62
-13 -25 -19 -27 -46 -22 -18 4 -64 26 -104 51 -39 24 -93 51 -120 61 -57 20
-253 28 -327 13z"/>
<path d="M1080 2919 c0 -25 3 -26 66 -32 43 -3 76 -12 93 -24 53 -40 56 -54
59 -370 3 -265 5 -291 20 -288 9 2 65 4 124 4 l106 1 4 283 c3 235 6 288 20
319 22 49 54 68 130 76 58 6 63 9 66 32 l3 25 -346 0 -345 0 0 -26z"/>
<path d="M450 1930 c0 -100 -3 -120 -16 -128 -12 -7 -13 -11 -5 -17 7 -4 21 1
32 11 17 15 19 31 19 136 0 98 -3 118 -15 118 -12 0 -15 -20 -15 -120z"/>
<path d="M590 1950 l0 -100 73 2 c69 2 70 2 15 5 l-58 4 0 39 0 40 50 0 c28 0
50 5 50 10 0 6 -22 10 -50 10 l-50 0 0 35 0 35 49 0 c28 0 53 5 56 10 4 6 -20
10 -64 10 l-71 0 0 -100z"/>
<path d="M820 2048 c1 -2 16 -46 34 -98 39 -111 57 -124 76 -53 8 26 19 61 26
77 11 29 12 28 34 -48 17 -56 27 -76 38 -74 19 4 86 198 69 198 -7 0 -23 -36
-36 -80 -13 -45 -27 -77 -31 -73 -4 4 -17 41 -29 81 -12 40 -27 72 -34 72 -8
0 -21 -29 -31 -68 -27 -103 -30 -104 -61 -13 -16 51 -32 81 -41 81 -8 0 -14
-1 -14 -2z"/>
<path d="M1204 2034 c3 -9 6 -54 6 -100 l0 -84 68 2 67 2 -57 3 -58 4 0 39 0
40 50 0 c28 0 50 5 50 10 0 6 -22 10 -50 10 l-50 0 0 35 0 35 55 0 c30 0 55 5
55 10 0 6 -30 10 -71 10 -61 0 -70 -2 -65 -16z"/>
<path d="M1444 2034 c3 -9 6 -54 6 -100 l0 -84 68 2 67 2 -57 3 -58 4 0 94 c0
81 -2 95 -16 95 -11 0 -14 -5 -10 -16z"/>
<path d="M1680 1950 l0 -100 73 2 c69 2 70 2 15 5 l-58 4 0 94 c0 78 -3 95
-15 95 -12 0 -15 -18 -15 -100z"/>
<path d="M1920 1950 l0 -100 73 2 c69 2 70 2 15 5 l-58 4 0 39 0 40 45 0 c25
0 45 5 45 10 0 6 -20 10 -45 10 -29 0 -45 4 -45 13 0 6 -3 22 -6 35 -6 21 -4
22 50 22 31 0 56 5 56 10 0 6 -28 10 -65 10 l-65 0 0 -100z"/>
<path d="M2160 1950 c0 -82 3 -100 15 -100 11 0 15 11 15 40 0 29 4 40 15 40
8 0 27 -18 41 -40 15 -22 33 -40 41 -40 15 0 13 6 -18 51 -18 26 -18 27 1 44
27 25 26 70 -2 89 -12 9 -42 16 -65 16 l-43 0 0 -100z m100 60 c15 -28 -3 -57
-40 -62 -29 -4 -30 -4 -30 39 0 41 1 43 30 43 19 0 33 -7 40 -20z"/>
<path d="M2390 2045 c0 -3 16 -29 35 -58 26 -39 35 -62 35 -94 0 -32 4 -43 15
-43 11 0 15 12 15 46 0 33 7 56 28 87 43 64 45 67 29 67 -9 0 -27 -21 -42 -46
l-27 -46 -30 46 c-17 25 -37 46 -44 46 -8 0 -14 -2 -14 -5z"/>
<path d="M2810 2030 c-35 -35 -22 -57 60 -102 34 -19 37 -43 8 -62 -13 -8 -23
-8 -35 2 -41 29 -68 27 -43 -3 8 -9 29 -15 56 -15 35 0 47 5 59 24 23 34 6 62
-51 87 -37 15 -45 23 -42 41 4 27 32 35 64 17 30 -16 46 -2 20 17 -28 20 -73
17 -96 -6z"/>
<path d="M3030 1950 c0 -82 3 -100 15 -100 11 0 15 12 15 45 l0 45 50 0 50 0
0 -45 c0 -33 4 -45 15 -45 12 0 15 18 15 100 0 82 -3 100 -15 100 -11 0 -15
-12 -15 -45 l0 -45 -50 0 -50 0 0 45 c0 33 -4 45 -15 45 -12 0 -15 -18 -15
-100z"/>
<path d="M3338 2035 c-52 -28 -60 -115 -16 -162 46 -49 139 -18 152 51 17 90
-59 152 -136 111z m86 -21 c33 -32 32 -100 -1 -136 -54 -60 -128 38 -89 118
12 27 21 34 45 34 16 0 37 -7 45 -16z"/>
<path d="M3580 1950 c0 -82 3 -100 15 -100 11 0 15 11 15 40 0 39 1 40 33 40
40 0 67 25 67 63 0 35 -34 57 -87 57 l-43 0 0 -100z m100 59 c16 -28 -11 -69
-45 -69 -23 0 -25 4 -25 45 0 43 1 45 30 45 19 0 33 -7 40 -21z"/>
<path d="M1297 1323 c-6 -381 -17 -483 -64 -581 -33 -70 -90 -127 -162 -161
-49 -23 -68 -26 -156 -26 -77 0 -108 5 -134 19 l-34 18 41 18 c48 22 72 62 72
120 0 63 -26 109 -74 131 -111 50 -216 -12 -216 -129 0 -60 20 -102 70 -145
76 -65 135 -81 290 -82 116 0 145 3 202 23 145 50 255 148 324 287 65 132 84
254 91 593 l6 262 -125 0 -125 0 -6 -347z"/>
<path d="M2864 1662 c3 -5 21 -32 40 -61 102 -151 83 -371 -40 -482 -117 -105
-318 -120 -477 -36 -132 70 -228 246 -259 478 l-12 89 -33 0 -33 0 0 -320 c0
-176 -1 -323 -2 -327 -2 -5 11 -9 28 -11 30 -3 32 -1 38 39 15 94 41 100 160
35 125 -68 209 -90 346 -90 364 -1 591 192 592 503 0 53 -6 117 -12 144 l-12
47 -165 0 c-90 0 -162 -4 -159 -8z"/>
</g>
</svg>
